<svg width="18" height="18" viewBox="0 0 18 18" fill="none" xmlns="http://www.w3.org/2000/svg">
<path d="M16.2819 6.34927C14.6537 6.34927 13.988 5.12879 14.7976 3.63179C15.2654 2.7641 14.9865 1.65804 14.1679 1.16222L12.6117 0.218258C11.901 -0.229888 10.9835 0.0370925 10.5607 0.790358L10.4618 0.971523C9.65217 2.46852 8.32084 2.46852 7.50225 0.971523L7.4033 0.790358C6.9985 0.0370925 6.08096 -0.229888 5.37031 0.218258L3.81409 1.16222C2.9955 1.65804 2.71664 2.77364 3.18441 3.64133C4.003 5.12879 3.33733 6.34927 1.70915 6.34927C0.773613 6.34927 0 7.15974 0 8.16092V9.83908C0 10.8307 0.764618 11.6507 1.70915 11.6507C3.33733 11.6507 4.003 12.8712 3.18441 14.3682C2.71664 15.2359 2.9955 16.342 3.81409 16.8378L5.37031 17.7817C6.08096 18.2299 6.9985 17.9629 7.42129 17.2096L7.52024 17.0285C8.32983 15.5315 9.66117 15.5315 10.4798 17.0285L10.5787 17.2096C11.0015 17.9629 11.919 18.2299 12.6297 17.7817L14.1859 16.8378C15.0045 16.342 15.2834 15.2264 14.8156 14.3682C13.997 12.8712 14.6627 11.6507 16.2909 11.6507C17.2264 11.6507 18 10.8403 18 9.83908V8.16092C17.991 7.16928 17.2264 6.34927 16.2819 6.34927ZM8.9955 12.0989C7.38531 12.0989 6.07196 10.7068 6.07196 9C6.07196 7.29323 7.38531 5.90112 8.9955 5.90112C10.6057 5.90112 11.919 7.29323 11.919 9C11.919 10.7068 10.6057 12.0989 8.9955 12.0989Z" fill="white"/>
</svg>
