<svg width="18" height="18" viewBox="0 0 18 18" fill="none" xmlns="http://www.w3.org/2000/svg">
<path d="M7.875 1.25C10.9861 1.25 13.6228 3.27952 14.5342 6.08691C13.8104 5.78994 13.0183 5.625 12.1875 5.625C11.2656 5.625 10.3915 5.82793 9.60547 6.18945C9.45658 6.05654 9.26145 5.97461 9.04688 5.97461C8.5809 5.97461 8.20312 6.35577 8.20312 6.8252C8.20314 6.90407 8.21441 6.98027 8.23438 7.05273C6.86931 8.18771 6 9.89847 6 11.8125C6 13.0596 6.37015 14.2198 7.00488 15.1914C6.58373 15.1373 6.15859 15.0491 5.73047 14.9258L3.39844 15.9287C3.06252 16.0729 2.67441 16.0224 2.38672 15.7969C2.09897 15.5713 1.95763 15.2064 2.01758 14.8457L2.39062 12.5967C1.44341 11.4028 0.875 9.89236 0.875 8.25C0.875 4.38399 4.00899 1.25 7.875 1.25ZM12.1875 7.125C13.1838 7.125 14.1068 7.43683 14.8662 7.9668C14.8683 8.0191 14.8731 8.07143 14.874 8.12402C14.8838 8.67621 14.4438 9.13183 13.8916 9.1416C13.3727 9.15072 12.9384 8.76283 12.8799 8.25781L9.75 8.625L9.13379 13.166C9.5494 13.2223 9.90091 13.5379 9.98242 13.9727C10.0841 14.5154 9.72717 15.0378 9.18457 15.1396C9.09904 15.1557 9.01272 15.1661 8.92676 15.1787C8.0473 14.3266 7.5 13.1337 7.5 11.8125C7.5 9.22366 9.59866 7.125 12.1875 7.125ZM5.67188 5.97461C5.2059 5.97461 4.82812 6.35577 4.82812 6.8252C4.82822 7.29458 5.20596 7.6748 5.67188 7.6748C6.13779 7.6748 6.51553 7.29458 6.51562 6.8252C6.51562 6.35577 6.13785 5.97461 5.67188 5.97461Z" fill="white"/>
<mask id="path-2-inside-1_598_3253" fill="white">
<path fill-rule="evenodd" clip-rule="evenodd" d="M15.7509 13.4902L16.125 15.7504L14.5356 14.9739"/>
</mask>
<path fill-rule="evenodd" clip-rule="evenodd" d="M15.7509 13.4902L16.125 15.7504L14.5356 14.9739" fill="white"/>
<path d="M16.125 15.7504L15.9055 16.1997L16.7766 16.6253L16.6183 15.6688L16.125 15.7504ZM15.7509 13.4902L15.2576 13.5719L15.6317 15.8321L16.125 15.7504L16.6183 15.6688L16.2442 13.4086L15.7509 13.4902ZM16.125 15.7504L16.3445 15.3012L14.7551 14.5247L14.5356 14.9739L14.3162 15.4232L15.9055 16.1997L16.125 15.7504Z" fill="white" mask="url(#path-2-inside-1_598_3253)"/>
<path d="M15.7509 13.4902L16.125 15.7504L14.5356 14.9739" stroke="white" stroke-width="2" stroke-linecap="round" stroke-linejoin="round"/>
<path d="M12.1875 7.125C14.7763 7.125 16.875 9.22366 16.875 11.8125C16.875 12.5252 16.7158 13.2028 16.4297 13.8096C16.253 14.1842 15.8053 14.3446 15.4307 14.168C15.3739 14.1412 15.3219 14.1083 15.2754 14.0703L15.0107 14.3936C15.0571 14.4316 15.1003 14.4751 15.1377 14.5254C15.385 14.8577 15.3157 15.3279 14.9834 15.5752C14.2028 16.156 13.2342 16.5 12.1875 16.5C9.59866 16.5 7.5 14.4013 7.5 11.8125C7.5 9.22366 9.59866 7.125 12.1875 7.125ZM10.8516 10.2754C10.5022 10.2754 10.2189 10.5602 10.2188 10.9121C10.2188 11.2642 10.5021 11.5498 10.8516 11.5498C11.2011 11.5498 11.4844 11.2642 11.4844 10.9121C11.4842 10.5602 11.2009 10.2754 10.8516 10.2754ZM13.3828 10.2754C13.0334 10.2754 12.7502 10.5602 12.75 10.9121C12.75 11.2642 13.0333 11.5498 13.3828 11.5498C13.7323 11.5498 14.0156 11.2642 14.0156 10.9121C14.0154 10.5602 13.7322 10.2754 13.3828 10.2754Z" fill="white"/>
</svg>
